<svg width="100" height="100">
    <!-- my first ever svg made without scratch don't judge me okay -->

    <!-- back -->
    <polygon points=" 0,0 0,100 50,50" fill="#006eff" />
    <polygon points="0,0 100,0 50,50" fill="#0084ff"/>
    <polygon points="0,100 100,100 50,50" fill="#002fff"/>
    <polygon points="100,100 100,0 50,50" fill="#003cff"/>
    <rect width="80" height="80" x="10" y="10" fill="black"/>
    <!-- back -->

    <!-- round shaders -->
    <path d="M0,100 C0,100,50,90,100,100 L0,100 Z" fill="rgba(0,0,0,0.1)" />
    <path d="M0,0 C0,0,50,10,100,0 L0,0 Z" fill="rgba(0,0,0,0.1)"/>
    <path d="M0,0 C0,0,10,50,0,100 L0,0 Z" fill="rgba(0,0,0,0.1)"/>
    <path d="M100,0 C100,0,90,50,100,100 L100,0 Z" fill="rgba(0,0,0,0.1)"/>
    <!-- round shaders -->

    <path d="M15,15 L15,75 L25,85 L25,15Z M25,75 L 25,85 L40,85 L40,75 Z M40,15 L50,15 L50,75 L40,85" fill="white"/>
    <path d="M55,25 L55,75 L65,85 L65,15Z M65,75 L 65,85 L80,85 L80,75 Z M65,15 L 65,25 L80,25 L80,15 Z" fill="white"/>
</svg>